<svg xmlns="http://www.w3.org/2000/svg" viewBox="0 0 1280 380" width="1280" height="380">
  <defs>
    <pattern id="hero-grid" width="40" height="40" patternUnits="userSpaceOnUse">
      <path d="M 40 0 L 0 0 0 40" fill="none" stroke="#1E293B" stroke-width="1"/>
    </pattern>
  </defs>
  <rect width="1280" height="380" fill="#0F172A" />
  <rect width="1280" height="380" fill="url(#hero-grid)" />
  <text x="80" y="90" fill="#38BDF8" font-size="13" font-family="system-ui, -apple-system, sans-serif" font-weight="700" letter-spacing="2">LINUX OPERATIONS LAB</text>
  <text x="80" y="145" fill="#F8FAFC" font-size="46" font-family="system-ui, -apple-system, sans-serif" font-weight="800" letter-spacing="-1">linux-infra-lab</text>
  <text x="80" y="195" fill="#94A3B8" font-size="18" font-family="system-ui, -apple-system, sans-serif" font-weight="400">Apache reverse proxying, Docker Compose orchestration, Bash</text>
  <text x="80" y="225" fill="#94A3B8" font-size="18" font-family="system-ui, -apple-system, sans-serif" font-weight="400">automation, backups, health checks, logs, and troubleshooting workflows.</text>
  <g transform="translate(80, 275)">
    <rect x="0" y="0" width="70" height="32" fill="#1E293B" stroke="#334155" stroke-width="1" rx="6" />
    <text x="35" y="21" fill="#10B981" font-size="13" font-family="system-ui, -apple-system, sans-serif" font-weight="600" text-anchor="middle">Linux</text>
    <rect x="85" y="0" width="65" height="32" fill="#1E293B" stroke="#334155" stroke-width="1" rx="6" />
    <text x="117.5" y="21" fill="#F59E0B" font-size="13" font-family="system-ui, -apple-system, sans-serif" font-weight="600" text-anchor="middle">Bash</text>

    <rect x="165" y="0" width="80" height="32" fill="#1E293B" stroke="#334155" stroke-width="1" rx="6" />
    <text x="205" y="21" fill="#38BDF8" font-size="13" font-family="system-ui, -apple-system, sans-serif" font-weight="600" text-anchor="middle">Apache</text>

    <rect x="260" y="0" width="80" height="32" fill="#1E293B" stroke="#334155" stroke-width="1" rx="6" />
    <text x="300" y="21" fill="#A855F7" font-size="13" font-family="system-ui, -apple-system, sans-serif" font-weight="600" text-anchor="middle">Docker</text>

    <rect x="355" y="0" width="90" height="32" fill="#1E293B" stroke="#334155" stroke-width="1" rx="6" />
    <text x="400" y="21" fill="#F97316" font-size="13" font-family="system-ui, -apple-system, sans-serif" font-weight="600" text-anchor="middle">Backups</text>

    <rect x="460" y="0" width="100" height="32" fill="#1E293B" stroke="#334155" stroke-width="1" rx="6" />
    <text x="510" y="21" fill="#EF4444" font-size="13" font-family="system-ui, -apple-system, sans-serif" font-weight="600" text-anchor="middle">Runbooks</text>
  </g>
  <g transform="translate(740, 50)">
    <rect x="0" y="0" width="480" height="280" fill="#0B1120" stroke="#334155" stroke-width="1" rx="16" />
    <rect x="0" y="0" width="480" height="44" fill="#1E293B" rx="16" />
    <path d="M 0 44 L 480 44" stroke="#334155" stroke-width="1" />
    <circle cx="24" cy="22" r="5" fill="#EF4444" />
    <circle cx="40" cy="22" r="5" fill="#F59E0B" />
    <circle cx="56" cy="22" r="5" fill="#10B981" />
    <text x="240" y="26" fill="#94A3B8" font-size="12" font-family="system-ui, -apple-system, sans-serif" font-weight="600" text-anchor="middle" letter-spacing="1">SYSTEM SNAPSHOT</text>

    <path d="M 140 100 L 270 100" stroke="#475569" stroke-width="1.5" stroke-dasharray="3,3" />
    <path d="M 140 160 L 270 160" stroke="#475569" stroke-width="1.5" stroke-dasharray="3,3" />
    <path d="M 140 220 L 270 220" stroke="#475569" stroke-width="1.5" stroke-dasharray="3,3" />

    <path d="M 140 100 L 140 220" stroke="#475569" stroke-width="1.5" stroke-dasharray="3,3" />

    <g transform="translate(70, 80)">
      <rect width="140" height="40" fill="#0F172A" stroke="#334155" stroke-width="1" rx="6" />
      <rect width="4" height="40" fill="#38BDF8" rx="2" />
      <text x="70" y="25" fill="#F8FAFC" font-size="13" font-family="system-ui, -apple-system, sans-serif" font-weight="600" text-anchor="middle">Apache</text>
    </g>

    <g transform="translate(70, 140)">
      <rect width="140" height="40" fill="#0F172A" stroke="#334155" stroke-width="1" rx="6" />
      <rect width="4" height="40" fill="#A855F7" rx="2" />
      <text x="70" y="25" fill="#F8FAFC" font-size="13" font-family="system-ui, -apple-system, sans-serif" font-weight="600" text-anchor="middle">PHP</text>
    </g>

    <g transform="translate(70, 200)">
      <rect width="140" height="40" fill="#0F172A" stroke="#334155" stroke-width="1" rx="6" />
      <rect width="4" height="40" fill="#F59E0B" rx="2" />
      <text x="70" y="25" fill="#F8FAFC" font-size="13" font-family="system-ui, -apple-system, sans-serif" font-weight="600" text-anchor="middle">PostgreSQL</text>
    </g>

    <g transform="translate(270, 80)">
      <rect width="140" height="40" fill="#0F172A" stroke="#334155" stroke-width="1" rx="6" />
      <rect width="4" height="40" fill="#10B981" rx="2" />
      <text x="70" y="25" fill="#F8FAFC" font-size="13" font-family="system-ui, -apple-system, sans-serif" font-weight="600" text-anchor="middle">Node</text>
    </g>

    <g transform="translate(270, 140)">
      <rect width="140" height="40" fill="#0F172A" stroke="#334155" stroke-width="1" rx="6" />
      <rect width="4" height="40" fill="#A855F7" rx="2" />
      <text x="70" y="25" fill="#F8FAFC" font-size="13" font-family="system-ui, -apple-system, sans-serif" font-weight="600" text-anchor="middle">Redis</text>
    </g>

    <g transform="translate(270, 200)">
      <rect width="140" height="40" fill="#0F172A" stroke="#334155" stroke-width="1" rx="6" />
      <rect width="4" height="40" fill="#F59E0B" rx="2" />
      <text x="70" y="25" fill="#F8FAFC" font-size="13" font-family="system-ui, -apple-system, sans-serif" font-weight="600" text-anchor="middle">MySQL</text>
    </g>
  </g>
</svg>
